<svg xmlns:xlink="http://www.w3.org/1999/xlink" xmlns="http://www.w3.org/2000/svg" width="24" height="24" fill="none"><path fill-rule="evenodd" clip-rule="evenodd" d="M1 12c0 6.074 4.924 10.999 10.998 11H12c6.075 0 11-4.925 11-11S18.075 1 12 1 1 5.925 1 12Zm11-9a9 9 0 0 0-1 17.945V13H9a1 1 0 1 1 0-2h2v-.838c0-.528 0-.982.03-1.357.033-.395.104-.789.297-1.167a3 3 0 0 1 1.311-1.311c.378-.193.772-.264 1.167-.296.134-.011.682-.02 1.009-.026l.234-.004A1 1 0 0 1 15 8c.205 0 .106.001-.098.004-.297.004-.816.01-.934.02-.272.022-.373.06-.422.085a1 1 0 0 0-.437.437c-.025.05-.063.15-.085.422C13 9.25 13 9.623 13 10.2v.8h2a1 1 0 1 1 0 2h-2v7.945A9.001 9.001 0 0 0 12 3Z" fill="#1F2123"/></svg>