<svg xmlns:xlink="http://www.w3.org/1999/xlink" xmlns="http://www.w3.org/2000/svg" width="132" height="36" viewBox="0 0 132 36">
    <g fill="none">
        <path class="logo_text" fill="#ffffff" d="M68.305 10.11H57.948c-.115.723-.576 2.081-.92 2.977 6.04 0 6.559 0 7.595.03 1.754.028 3.452 1.04 3.51 3.322.057 1.705.086 3.555.086 5.376 0 1.56-.029 3.12-.087 4.508-.057 2.023-1.323 3.526-3.567 3.583-2.33.087-4.805.116-7.221.116-2.417 0-4.805-.029-7.049-.116-2.503-.086-3.769-1.358-3.826-3.496-.03-1.503-.058-3.035-.058-4.566 0-1.879.029-3.728.058-5.578.028-1.85 1.438-3.121 3.596-3.15 1.295 0 2.704-.029 4.143-.029.287-.954.546-2.08.69-2.976h-8.746c-.92 0-1.352-.607-1.352-1.243 0-.665.49-1.33 1.352-1.33h22.153c.863 0 1.295.636 1.295 1.301 0 .636-.432 1.272-1.295 1.272zm-6.588 5.29v12.166c2.56 0 3.682-.03 3.74-1.966.029-1.213.057-2.6.057-4.017 0-1.416-.028-2.86-.057-4.19-.058-1.647-.633-1.936-2.043-1.965-.575 0-1.122-.029-1.697-.029zm-2.474 2.542V15.37h-4.115v2.572h4.115zm0 4.624v-2.572h-4.115v2.572h4.115zm0 5.057v-3.005h-4.115v3.005h4.115zm-6.531-.057V15.399l-1.496.029c-1.64.029-2.1.491-2.13 1.965-.028 1.3-.057 3.15-.057 4.97 0 1.157.029 2.313.058 3.295.057 1.532.633 1.82 2.301 1.879.432 0 .863.029 1.324.029zm44.047-17.369c-.26 0-.49-.115-.69-.375-.605-.81-1.382-1.243-2.072-1.619-.288-.173-.432-.404-.432-.636 0-.549.662-1.156 1.295-1.156.661 0 3.107 1.214 3.107 2.4 0 .693-.633 1.386-1.208 1.386zm.546 3.15h-4.229c.173 11.097 2.129 14.247 2.935 14.247.402 0 .719-.635.92-2.311.087-.694.662-1.04 1.266-1.04.72 0 1.467.49 1.467 1.415 0 1.098-.92 4.71-3.711 4.71-4.172 0-5.294-8.524-5.495-17.02h-5.61c-.892 0-1.295-.579-1.295-1.186 0-.635.46-1.3 1.295-1.3H90.4c-.028-1.416-.057-2.803-.086-4.162v-.028c0-.839.72-1.272 1.439-1.272.69 0 1.38.405 1.38 1.3v.03c-.028 1.242-.057 2.658-.057 4.132h4.23c.834 0 1.236.607 1.236 1.243 0 .606-.402 1.242-1.237 1.242zM81.08 8.781h-5.754c-.777 0-1.15-.578-1.15-1.156s.373-1.156 1.15-1.156h5.754c.777 0 1.18.578 1.18 1.156s-.403 1.156-1.18 1.156zm.95 3.96h-7.884c-.834 0-1.237-.579-1.237-1.185 0-.578.403-1.185 1.237-1.185h7.883c.835 0 1.237.578 1.237 1.185 0 .577-.402 1.184-1.237 1.184zm3.596 12.05v-6.704h-1.612c-.748 0-1.093-.55-1.093-1.098 0-.578.374-1.185 1.093-1.185h5.122c.719 0 1.064.578 1.064 1.127 0 .578-.345 1.156-1.064 1.156h-.95v5.866c.49-.173.95-.375 1.467-.607.202-.086.374-.115.547-.115.604 0 1.007.52 1.007 1.098 0 .462-.23.925-.806 1.214-1.985 1.011-5.61 2.283-6.415 2.283-.835 0-1.266-.694-1.266-1.359 0-.549.288-1.098.95-1.242.718-.145 1.351-.29 1.956-.434zm-4.489-8.294h-5.754c-.776 0-1.15-.578-1.15-1.156s.374-1.156 1.15-1.156h5.754c.777 0 1.18.578 1.18 1.156s-.403 1.156-1.18 1.156zm0 3.728h-5.754c-.776 0-1.15-.578-1.15-1.156s.374-1.156 1.15-1.156h5.754c.777 0 1.18.578 1.18 1.156s-.403 1.156-1.18 1.156zm1.324 7.658c-.029 1.3-.95 2.226-2.388 2.312-.604.03-1.323.058-2.043.058-.69 0-1.38-.029-1.956-.058-1.295-.086-2.1-1.011-2.129-2.283 0-.751-.029-1.416-.029-2.08 0-.665.029-1.3.029-1.937.029-1.098.72-2.11 2.1-2.196.547-.029 1.18-.058 1.841-.058.806 0 1.612.03 2.273.058 1.094.058 2.273.81 2.302 2.052.029.665.029 1.387.029 2.11 0 .693 0 1.387-.03 2.022zm-2.388-.606c.029-.405.029-.867.029-1.359 0-.462 0-.953-.029-1.358-.058-.693-.547-.78-1.899-.78-1.899 0-1.927 0-1.927 2.138 0 .463.028.954.028 1.388.03.549.49.693 1.813.693 1.611 0 1.956-.231 1.985-.722zm39.185-1.879l.028.838c0 .665-.575 1.012-1.18 1.012-.574 0-1.179-.347-1.179-1.012l.03-2.976c-2.245.924-4.201 1.531-4.72 1.531-.718 0-1.121-.578-1.121-1.156 0-.491.288-1.011.892-1.156l.92-.26.03-12.83h-.519c-.805 0-1.237-.55-1.237-1.1 0-.548.432-1.097 1.237-1.097h8.315c.834 0 1.237.549 1.237 1.098s-.403 1.098-1.237 1.098h-1.525l.029 15.288c.057-.174.201-.318.374-.463.863-.722 1.61-1.705 2.215-2.774-1.496-3.179-1.87-6.213-1.87-7.398 0-.694.518-1.012 1.036-1.012.546 0 1.093.318 1.122.983.115 1.647.431 3.208.92 4.624.605-1.879.921-3.786.921-5.375v-.376c0-.116-.173-.376-.432-.376-.834 0-2.013.03-2.934.058h-.029c-.69 0-1.036-.52-1.036-1.07 0-.52.346-1.04 1.007-1.04.547-.029 1.209-.029 1.842-.029 2.848 0 3.912.058 3.912 2.11 0 1.127-.259 5.086-1.927 8.843.604.983 1.352 1.792 2.158 2.428.345.26.489.607.489.924 0 .665-.576 1.3-1.295 1.3-.317 0-1.15-.201-2.618-2.369-1.381 2.052-2.1 2.428-2.704 2.428-.518 0-.979-.29-1.151-.694zm-8.09-3.988h-2.239v5.433c1.496.665 3.05 1.098 7.567 1.098 3.28 0 7.106-.23 9.753-.404h.115c.777 0 1.237.635 1.237 1.3s-.46 1.358-1.41 1.445c-2.042.202-4.603.318-7.106.318-5.668 0-11.307-.116-14.299-4.422-.633 2.92-1.122 4.249-2.244 4.249-.633 0-1.237-.434-1.237-1.099 0-.202.029-.404.144-.606 1.266-2.486 1.726-6.04 1.726-9.017 0-.722.576-1.07 1.151-1.07.604 0 1.208.376 1.208 1.099 0 1.387-.201 3.208-.23 3.323.288.81.69 1.474 1.209 2.052v-8.323h-3.424c-.72 0-1.065-.549-1.065-1.098s.346-1.098 1.065-1.098h3.424v-2.485h-2.618c-.777 0-1.18-.578-1.18-1.156 0-.55.403-1.127 1.18-1.127h2.618l-.03-2.89c0-.78.605-1.185 1.238-1.185.604 0 1.237.404 1.237 1.185v2.89h1.95c.72 0 1.094.578 1.094 1.127 0 .578-.374 1.156-1.094 1.156h-1.95l-.029 2.485h2.612c.69 0 1.007.549 1.007 1.098 0 .55-.316 1.098-1.007 1.098h-2.612v2.428h2.238c.69 0 1.007.549 1.007 1.098s-.316 1.098-1.007 1.098zm5.846-9.537V9.388h-1.87v2.485h1.87zm-.03 4.335v-2.283h-1.812v2.283h1.813zm-.028 4.769l.029-2.688h-1.813v3.294c.605-.202 1.209-.375 1.784-.606z"/>
        <path class="logo_icon" fill="#ffffff" d="M22.2 3c2.32 0 4.2 1.88 4.2 4.2v1.4h1.4c2.32 0 4.2 1.88 4.2 4.2v14c0 2.32-1.88 4.2-4.2 4.2H8.2C5.88 31 4 29.12 4 26.8v-14c0-2.32 1.88-4.2 4.2-4.2h1.4V7.2c0-2.32 1.88-4.2 4.2-4.2h8.4zm4.2 12.6c-.773 0-1.4.627-1.4 1.4 0 3.866-3.134 7-7 7s-7-3.134-7-7c0-.773-.627-1.4-1.4-1.4-.773 0-1.4.627-1.4 1.4 0 5.412 4.388 9.8 9.8 9.8 5.412 0 9.8-4.388 9.8-9.8 0-.773-.627-1.4-1.4-1.4zm-4.2-9.8h-8.4c-.773 0-1.4.627-1.4 1.4v1.4h11.2V7.2c0-.773-.627-1.4-1.4-1.4z"/>
    </g>
</svg>