<svg xmlns:xlink="http://www.w3.org/1999/xlink" xmlns="http://www.w3.org/2000/svg" width="24" height="24" fill="none"><path fill-rule="evenodd" clip-rule="evenodd" d="M.5 12c0-3.593 2.734-6.625 6.25-6.625S13 8.407 13 12s-2.734 6.625-6.25 6.625S.5 15.593.5 12Zm6.25-4.625C4.467 7.375 2.5 9.38 2.5 12s1.967 4.625 4.25 4.625S11 14.62 11 12 9.033 7.375 6.75 7.375Zm8.922-.925c.395-.389.93-.7 1.578-.7.649 0 1.183.311 1.578.7.39.386.697.895.932 1.444.472 1.102.74 2.554.74 4.106s-.268 3.004-.74 4.106c-.235.55-.541 1.058-.932 1.443-.395.39-.93.701-1.578.701-.649 0-1.183-.311-1.578-.7-.39-.386-.697-.895-.932-1.444C14.268 15.004 14 13.552 14 12s.268-3.004.74-4.106c.235-.55.541-1.058.932-1.443Zm.906 2.232C16.236 9.48 16 10.652 16 12s.236 2.52.578 3.318c.172.401.35.662.499.808.097.095.154.118.173.123.019-.005.076-.027.173-.123.148-.146.327-.407.499-.808.342-.798.578-1.97.578-3.318s-.236-2.52-.578-3.318c-.172-.401-.35-.662-.499-.808-.097-.095-.154-.119-.173-.123-.019.004-.076.028-.173.123-.148.146-.327.407-.499.808Zm.674-.932h.004-.004Zm.003 8.5h.001-.004.003Z" fill="#1F2123"/><path d="M23.5 6.75a1 1 0 1 0-2 0v10.5a1 1 0 1 0 2 0V6.75Z" fill="#1F2123"/></svg>