<svg xmlns:xlink="http://www.w3.org/1999/xlink" xmlns="http://www.w3.org/2000/svg" width="24" height="24" fill="none"><path fill-rule="evenodd" clip-rule="evenodd" d="M10.555 7.168A1 1 0 0 0 9 8v8a1 1 0 0 0 1.555.832l6-4a1 1 0 0 0 0-1.664l-6-4ZM14.197 12 11 14.132V9.869L14.197 12Z" fill="#1F2123"/><path fill-rule="evenodd" clip-rule="evenodd" d="M12 3c-2.78 0-5.14.21-6.89.441C2.666 3.763.676 5.563.3 8.063A26.573 26.573 0 0 0 0 12c0 1.476.13 2.82.3 3.937.376 2.5 2.366 4.3 4.81 4.622 1.75.23 4.11.441 6.89.441 2.78 0 5.14-.21 6.89-.441 2.444-.322 4.434-2.122 4.81-4.622.17-1.118.3-2.46.3-3.937 0-1.476-.13-2.82-.3-3.937-.376-2.5-2.366-4.3-4.81-4.622C17.14 3.211 14.78 3 12 3ZM5.372 5.424A51.12 51.12 0 0 1 12 5c2.68 0 4.951.203 6.628.424 1.624.214 2.86 1.38 3.095 2.936A24.48 24.48 0 0 1 22 12c0 1.36-.12 2.602-.277 3.64-.234 1.556-1.47 2.722-3.095 2.936-1.677.22-3.948.424-6.628.424s-4.952-.203-6.628-.424c-1.624-.214-2.86-1.38-3.095-2.936A24.575 24.575 0 0 1 2 12c0-1.36.12-2.602.277-3.64.234-1.557 1.47-2.722 3.095-2.936Z" fill="#1F2123"/></svg>